# xmcd CD database file
#
# Track frame offsets:
#	150
#	26289
#	51849
#	75256
#	96765
#	123295
#	147649
#	165346
#	186873
#	210273
#	233392
#	257612
#	280899
#	302988
#	327330
#
# Disc length: 4691 seconds
#
# Revision: 1
# Processed by: cddbd v1.4PL0 Copyright (c) Steve Scherf et al.
# Submitted via: CDex 1.50beta9
#
DISCID=bd12510f
DTITLE=Grupo Niche - Los 30 Mejores [CD1)
DYEAR=2001
DGENRE=Salsa
TTITLE0=Una Aventura
TTITLE1=Gotas de Lluvia
TTITLE2=Cali Pachanguero
TTITLE3=La Magia de Tus Besos
TTITLE4=Ese Dia
TTITLE5=Mi Pueblo Natal
TTITLE6=Ana Mile
TTITLE7=Como Podre Disimular
TTITLE8=Brilla El Sol
TTITLE9=Hagamos Lo Que Diga El Corazon
TTITLE10=Perder para Amar
TTITLE11=Mi Valle del Cauca
TTITLE12=E Amor Vendra
TTITLE13=Miserable
TTITLE14=Listo Medellin
EXTD=YEAR: 2001
EXTT0=
EXTT1=
EXTT2=
EXTT3=
EXTT4=
EXTT5=
EXTT6=
EXTT7=
EXTT8=
EXTT9=
EXTT10=
EXTT11=
EXTT12=
EXTT13=
EXTT14=
PLAYORDER=
